<svg width="247" height="242" viewBox="0 0 247 242" fill="none" xmlns="http://www.w3.org/2000/svg">
<path d="M123.5 0C55.2662 0 0 55.5171 0 124.061C0 178.957 35.3518 225.325 84.443 241.763C90.618 242.849 92.9336 239.127 92.9336 235.87C92.9336 232.924 92.7793 223.154 92.7793 212.764C61.7499 218.502 53.7224 205.165 51.2524 198.187C49.8631 194.62 43.8425 183.61 38.5937 180.663C34.2712 178.337 28.0962 172.599 38.4393 172.444C48.1649 172.289 55.1118 181.439 57.4274 185.16C68.5424 203.925 86.2955 198.652 93.3968 195.395C94.4774 187.331 97.7193 181.904 101.27 178.802C73.7912 175.701 45.0775 165.001 45.0775 117.547C45.0775 104.056 49.8631 92.8903 57.7362 84.2061C56.5012 81.1046 52.1787 68.3884 58.9712 51.3301C58.9712 51.3301 69.3143 48.0735 92.9336 64.0463C102.814 61.2549 113.311 59.8592 123.809 59.8592C134.306 59.8592 144.804 61.2549 154.684 64.0463C178.303 47.9184 188.646 51.3301 188.646 51.3301C195.439 68.3884 191.116 81.1046 189.881 84.2061C197.754 92.8903 202.54 103.901 202.54 117.547C202.54 165.156 173.672 175.701 146.193 178.802C150.67 182.679 154.529 190.123 154.529 201.753C154.529 218.347 154.375 231.683 154.375 235.87C154.375 239.127 156.691 243.004 162.866 241.763C213.136 224.715 246.986 177.361 247 124.061C247 55.5171 191.734 0 123.5 0Z" fill="#727368"/>
</svg>
