<svg width="258" height="258" viewBox="0 0 258 258" fill="none" xmlns="http://www.w3.org/2000/svg">
<path d="M24.1875 32.25C10.834 32.25 0 43.084 0 56.4375C0 64.0465 3.57773 71.2019 9.675 75.7875L119.325 158.025C125.07 162.308 132.93 162.308 138.675 158.025L248.325 75.7875C254.422 71.2019 258 64.0465 258 56.4375C258 43.084 247.166 32.25 233.812 32.25H24.1875ZM0 88.6875V193.5C0 211.288 14.4621 225.75 32.25 225.75H225.75C243.538 225.75 258 211.288 258 193.5V88.6875L148.35 170.925C136.861 179.542 121.139 179.542 109.65 170.925L0 88.6875Z" fill="#727368"/>
</svg>
