<svg width="196" height="196" viewBox="0 0 196 196" fill="none" xmlns="http://www.w3.org/2000/svg">
<path d="M98.0219 47.7481C70.2124 47.7481 47.7812 70.1843 47.7812 98C47.7812 125.816 70.2124 148.252 98.0219 148.252C125.831 148.252 148.263 125.816 148.263 98C148.263 70.1843 125.831 47.7481 98.0219 47.7481ZM98.0219 130.67C80.0506 130.67 65.3588 116.019 65.3588 98C65.3588 79.981 80.0069 65.3297 98.0219 65.3297C116.037 65.3297 130.685 79.981 130.685 98C130.685 116.019 115.993 130.67 98.0219 130.67ZM162.036 45.6925C162.036 52.2091 156.789 57.4136 150.318 57.4136C143.803 57.4136 138.599 52.1653 138.599 45.6925C138.599 39.2197 143.846 33.9714 150.318 33.9714C156.789 33.9714 162.036 39.2197 162.036 45.6925ZM195.311 57.5885C194.568 41.8875 190.983 27.9797 179.483 16.521C168.027 5.06234 154.122 1.47604 138.424 0.688814C122.246 -0.229605 73.7542 -0.229605 57.5757 0.688814C41.9219 1.43233 28.0172 5.01862 16.5173 16.4773C5.01746 27.936 1.47571 41.8438 0.688661 57.5448C-0.229554 73.7269 -0.229554 122.229 0.688661 138.411C1.43201 154.112 5.0175 168.02 16.5173 179.479C28.0171 190.938 41.8782 194.524 57.5757 195.311C73.7542 196.23 122.246 196.23 138.424 195.311C154.122 194.568 168.027 190.981 179.483 179.479C190.939 168.02 194.524 154.112 195.311 138.411C196.23 122.229 196.23 73.7706 195.311 57.5885ZM174.41 155.774C171 164.347 164.397 170.951 155.783 174.406C142.884 179.523 112.276 178.342 98.0219 178.342C83.7674 178.342 53.1157 179.479 40.2604 174.406C31.6901 170.994 25.0875 164.39 21.6332 155.774C16.5173 142.872 17.6979 112.258 17.6979 98C17.6979 83.7423 16.5611 53.0838 21.6332 40.2256C25.0438 31.6534 31.6464 25.0494 40.2604 21.5943C53.1594 16.4773 83.7673 17.6581 98.0219 17.6581C112.276 17.6581 142.928 16.521 155.783 21.5943C164.354 25.0057 170.956 31.6097 174.41 40.2256C179.526 53.1275 178.346 83.7423 178.346 98C178.346 112.258 179.526 142.916 174.41 155.774Z" fill="#727368"/>
</svg>
