<svg width="188" height="188" viewBox="0 0 188 188" fill="none" xmlns="http://www.w3.org/2000/svg">
<path d="M42.0818 188H3.10536V62.5045H42.0818V188ZM22.5726 45.3857C10.1092 45.3857 0 35.0642 0 22.6027C0 5.22905 18.8105 -5.62948 33.8589 3.05735C40.8429 7.08889 45.1452 14.5396 45.1452 22.6027C45.1452 35.0642 35.0318 45.3857 22.5726 45.3857ZM187.958 188H149.066V126.91C149.066 112.35 148.772 93.6791 128.801 93.6791C108.536 93.6791 105.431 109.497 105.431 125.861V188H66.4966V62.5045H103.878V79.6232H104.424C109.627 69.7632 122.338 59.3577 141.302 59.3577C180.749 59.3577 188 85.3295 188 119.063V188H187.958Z" fill="#727368"/>
</svg>
