<svg width="332" height="277" viewBox="0 0 332 277" fill="none" xmlns="http://www.w3.org/2000/svg">
<path d="M303.722 220.889C318.97 220.889 331.333 233.252 331.333 248.5C331.333 263.748 318.97 276.111 303.722 276.111C295.425 276.111 35.9083 276.111 27.6111 276.111C12.3629 276.111 0 263.748 0 248.5C0 233.252 12.3629 220.889 27.6111 220.889C35.9083 220.889 295.425 220.889 303.722 220.889ZM303.722 110.444C318.97 110.444 331.333 122.807 331.333 138.056C331.333 153.304 318.97 165.667 303.722 165.667C295.425 165.667 35.9083 165.667 27.6111 165.667C12.3629 165.667 0 153.304 0 138.056C0 122.807 12.3629 110.444 27.6111 110.444C35.9083 110.444 295.425 110.444 303.722 110.444ZM303.722 0C318.97 0 331.333 12.3629 331.333 27.6111C331.333 42.8593 318.97 55.2222 303.722 55.2222C295.425 55.2222 35.9083 55.2222 27.6111 55.2222C12.3629 55.2222 0 42.8593 0 27.6111C0 12.3629 12.3629 0 27.6111 0C35.9083 0 295.425 0 303.722 0Z" fill="#ECEDE2"/>
</svg>
